<?xml version="1.0" encoding="utf-8"?>
<!-- Generator: Adobe Illustrator 28.1.0, SVG Export Plug-In . SVG Version: 6.00 Build 0)  -->
<svg version="1.1" id="logo" xmlns="http://www.w3.org/2000/svg" xmlns:xlink="http://www.w3.org/1999/xlink" x="0px" y="0px"
	 viewBox="0 0 93.5 93.5" style="enable-background:new 0 0 93.5 93.5;" xml:space="preserve">
<style type="text/css">
	.st0{display:none;fill:#233554;}
	.st1{fill:none;stroke:#95D0A1;stroke-width:3;}
	.st2{fill:#95D0A1;}
</style>
<polygon id="Shape_00000023966009971715318830000002078505933461376901_" class="st0" points="1.7,46.7 23.7,85.7 68.7,85.7 
	91.7,46.7 69.7,7.7 24.7,7.7 "/>
<polygon id="Shape" class="st1" points="1.7,46.7 23.7,85.7 68.7,85.7 91.7,46.7 69.7,7.7 24.7,7.7 "/>
<path class="st2" d="M34.9,63h-3.7l-8.4-21.4V63h-5V32.3h6l9.4,23.6l9.2-23.6h5.8V63h-5V41.6L34.9,63L34.9,63z"/>
<path class="st2" d="M54.8,59c-2.7-3-4-6.8-4-11.4s1.3-8.5,4-11.4c2.6-3,6-4.4,10-4.4s6.2,0.9,8.3,2.7c2.2,1.8,3.6,4.3,4.2,7.4h-5.1
	c-1.3-3.6-3.8-5.5-7.4-5.5s-4.8,1-6.3,3.1c-1.6,2.1-2.4,4.8-2.4,8s0.8,5.9,2.4,8c1.6,2.1,3.7,3.1,6.3,3.1s6.1-1.8,7.4-5.5h5.1
	c-0.6,3.2-2,5.7-4.2,7.5s-4.9,2.7-8.3,2.7s-7.3-1.5-10-4.4V59z"/>
</svg>
